<?xml version="1.0" encoding="UTF-8"?>
<svg id="Layer_2" data-name="Layer 2" xmlns="http://www.w3.org/2000/svg" viewBox="0 0 166.71 184.9">
  <defs>
    <style>
      .cls-1 {
        fill: #ef464b;
      }

      .cls-2 {
        fill: #56c3d8;
      }
    </style>
  </defs>
  <g id="BACKGROUND">
    <g>
      <g>
        <path class="cls-2" d="M96.7,166.71h-52.62v-3h52.62c7.01,0,12.72-5.71,12.72-12.72v-25.84c0-8.67,7.05-15.72,15.72-15.72h25.84c7.01,0,12.72-5.71,12.72-12.72v-26.7c0-7.01-5.71-12.72-12.72-12.72h-25.84c-8.67,0-15.72-7.05-15.72-15.72V15.72c0-7.01-5.71-12.72-12.72-12.72h-26.7c-7.01,0-12.72,5.71-12.72,12.72v25.84c0,8.67-7.05,15.72-15.72,15.72H15.72c-7.01,0-12.72,5.71-12.72,12.72v29.05c0,5.9,5.04,9.02,10.26,10.12l1.66.28-.45,2.97c-8.79-1.16-14.47-6.4-14.47-13.36v-29.05c0-8.67,7.05-15.72,15.72-15.72h25.84c7.01,0,12.72-5.71,12.72-12.72V15.72c0-8.67,7.05-15.72,15.72-15.72h26.7c8.67,0,15.72,7.05,15.72,15.72v25.84c0,7.01,5.71,12.72,12.72,12.72h25.84c8.67,0,15.72,7.05,15.72,15.72v26.7c0,8.67-7.05,15.72-15.72,15.72h-25.84c-7.01,0-12.72,5.71-12.72,12.72v25.84c0,8.67-7.05,15.72-15.72,15.72Z"/>
        <path class="cls-1" d="M44.08,166.71c-.42,0-.84-.18-1.14-.53-.54-.63-.46-1.58.17-2.11,21.4-18.27,28.08-30.58,30.16-36.29.86-2.04,1.28-4.13,1.28-6.28,0-8.81-7.17-15.99-15.99-15.99-5.85,0-11.24,3.2-14.04,8.34-.26.48-.77.78-1.32.78s-1.05-.3-1.32-.78c-2.81-5.15-8.19-8.34-14.04-8.34-5.05,0-9.87,2.43-12.87,6.5-.49.67-1.43.81-2.1.32-.67-.49-.81-1.43-.32-2.1,3.57-4.83,9.28-7.72,15.28-7.72s11.81,2.95,15.36,7.82c3.55-4.88,9.23-7.82,15.36-7.82,10.47,0,18.99,8.52,18.99,18.99,0,2.56-.5,5.04-1.49,7.38-2.63,7.25-10.17,19.7-31,37.48-.28.24-.63.36-.97.36Z"/>
      </g>
      <g>
        <path class="cls-2" d="M67.6,97.24h-5.95l-13.46-20.34v20.34h-5.94v-29.68h5.94l13.46,20.38v-20.38h5.95v29.68Z"/>
        <path class="cls-2" d="M77.68,96.47c-1.66-.71-2.97-1.73-3.93-3.06-.96-1.33-1.46-2.9-1.49-4.71h6.37c.08,1.22.52,2.18,1.29,2.89.78.71,1.85,1.06,3.21,1.06s2.48-.33,3.27-1c.79-.66,1.19-1.53,1.19-2.61,0-.88-.27-1.6-.81-2.17-.54-.57-1.21-1.01-2.02-1.34-.81-.32-1.92-.69-3.33-1.08-1.92-.57-3.49-1.12-4.69-1.68-1.2-.55-2.24-1.39-3.1-2.51-.86-1.12-1.29-2.61-1.29-4.48,0-1.75.44-3.28,1.32-4.59.88-1.3,2.11-2.3,3.69-2.99,1.58-.69,3.4-1.04,5.43-1.04,3.06,0,5.54.74,7.45,2.23,1.91,1.49,2.96,3.56,3.16,6.22h-6.54c-.06-1.02-.49-1.86-1.29-2.53-.81-.66-1.88-1-3.21-1-1.16,0-2.09.3-2.78.89-.69.59-1.04,1.46-1.04,2.59,0,.79.26,1.45.79,1.97.52.52,1.17.95,1.95,1.27.78.33,1.87.7,3.29,1.13,1.92.57,3.5,1.13,4.71,1.7,1.22.57,2.27,1.41,3.14,2.55s1.32,2.62,1.32,4.46c0,1.58-.41,3.06-1.23,4.42-.82,1.36-2.02,2.44-3.61,3.25-1.58.81-3.47,1.21-5.65,1.21s-3.93-.35-5.58-1.06Z"/>
        <path class="cls-2" d="M117.04,69.42c2.36,1.22,4.19,2.95,5.48,5.2,1.29,2.25,1.93,4.86,1.93,7.83s-.64,5.57-1.93,7.79c-1.29,2.22-3.11,3.94-5.48,5.16-2.36,1.22-5.1,1.83-8.22,1.83h-10.36v-29.64h10.36c3.11,0,5.85.61,8.22,1.82ZM115.83,89.64c1.7-1.7,2.55-4.09,2.55-7.18s-.85-5.5-2.55-7.24c-1.7-1.74-4.1-2.61-7.22-2.61h-4.2v19.57h4.2c3.11,0,5.52-.85,7.22-2.55Z"/>
      </g>
      <g>
        <path class="cls-1" d="M6.38,184.85h-1.33l-2.22-3.36v3.36h-1.33v-5.46h1.33l2.22,3.38v-3.38h1.33v5.46Z"/>
        <path class="cls-1" d="M10.2,179.39v3.26c0,.33.08.58.24.75.16.18.4.26.71.26s.55-.09.71-.26c.17-.18.25-.43.25-.75v-3.26h1.33v3.26c0,.49-.1.9-.31,1.23-.21.34-.49.59-.84.76-.35.17-.74.26-1.17.26s-.81-.08-1.15-.25c-.34-.17-.61-.42-.8-.76s-.29-.75-.29-1.24v-3.26h1.33Z"/>
        <path class="cls-1" d="M18.71,184.85l-1.13-2.06h-.32v2.06h-1.33v-5.46h2.23c.43,0,.8.08,1.1.23.3.15.53.36.68.62.15.26.23.55.23.87,0,.36-.1.69-.31.97-.2.29-.51.49-.91.61l1.26,2.16h-1.5ZM17.26,181.85h.82c.24,0,.43-.06.55-.18s.18-.29.18-.51-.06-.37-.18-.49-.3-.18-.55-.18h-.82v1.35Z"/>
        <path class="cls-1" d="M23.45,184.71c-.32-.13-.57-.32-.76-.57-.19-.25-.29-.56-.3-.92h1.41c.02.2.09.36.21.46.12.11.27.16.47.16s.35-.04.47-.14.17-.22.17-.38c0-.13-.05-.25-.14-.33-.09-.09-.2-.16-.33-.22-.13-.06-.32-.12-.56-.19-.35-.11-.64-.22-.86-.33-.22-.11-.42-.27-.58-.48s-.24-.49-.24-.83c0-.51.18-.91.55-1.19.37-.29.85-.43,1.44-.43s1.09.14,1.45.43c.37.29.56.69.59,1.2h-1.44c0-.18-.07-.31-.19-.42-.12-.1-.27-.15-.46-.15-.16,0-.29.04-.39.13-.1.09-.15.21-.15.37,0,.18.08.31.25.41.17.1.42.2.78.32.35.12.64.23.86.34.22.11.41.27.57.47.16.21.24.47.24.8s-.08.59-.24.85c-.16.25-.39.46-.69.61-.3.15-.66.22-1.06.22s-.76-.06-1.07-.19Z"/>
        <path class="cls-1" d="M30.21,179.39v5.46h-1.33v-5.46h1.33Z"/>
        <path class="cls-1" d="M37.61,184.85h-1.33l-2.22-3.36v3.36h-1.33v-5.46h1.33l2.22,3.38v-3.38h1.33v5.46Z"/>
        <path class="cls-1" d="M43.75,181.12c-.1-.18-.24-.32-.42-.42-.18-.1-.4-.14-.65-.14-.43,0-.77.14-1.03.42-.26.28-.39.66-.39,1.13,0,.5.14.9.41,1.18.27.28.65.42,1.12.42.33,0,.6-.08.83-.25s.39-.4.49-.71h-1.69v-.98h2.89v1.23c-.1.33-.27.64-.5.92-.24.29-.54.52-.9.69-.36.18-.77.26-1.23.26-.54,0-1.02-.12-1.44-.35-.42-.24-.75-.56-.99-.98-.24-.42-.35-.9-.35-1.44s.12-1.02.35-1.44c.24-.42.56-.75.98-.99.42-.24.9-.35,1.44-.35.65,0,1.2.16,1.65.47.45.32.74.75.89,1.31h-1.47Z"/>
        <path class="cls-1" d="M51.71,184.71c-.32-.13-.57-.32-.76-.57-.19-.25-.29-.56-.3-.92h1.41c.02.2.09.36.21.46.12.11.28.16.47.16s.35-.04.47-.14c.11-.09.17-.22.17-.38,0-.13-.05-.25-.14-.33-.09-.09-.2-.16-.33-.22-.13-.06-.32-.12-.56-.19-.35-.11-.64-.22-.86-.33-.22-.11-.41-.27-.57-.48s-.24-.49-.24-.83c0-.51.18-.91.55-1.19.37-.29.85-.43,1.44-.43s1.09.14,1.45.43c.37.29.56.69.59,1.2h-1.44c-.01-.18-.08-.31-.19-.42-.12-.1-.27-.15-.46-.15-.16,0-.29.04-.39.13s-.15.21-.15.37c0,.18.08.31.25.41.17.1.42.2.78.32.35.12.64.23.86.34.22.11.41.27.57.47s.24.47.24.8-.08.59-.24.85c-.16.25-.39.46-.69.61-.3.15-.65.22-1.06.22s-.76-.06-1.07-.19Z"/>
        <path class="cls-1" d="M58.47,180.46v1.1h1.78v1.03h-1.78v1.2h2.01v1.06h-3.34v-5.46h3.34v1.06h-2.01Z"/>
        <path class="cls-1" d="M65.68,184.85l-1.13-2.06h-.32v2.06h-1.33v-5.46h2.23c.43,0,.8.08,1.1.23.3.15.53.36.68.62.15.26.23.55.23.87,0,.36-.1.69-.31.97-.2.29-.51.49-.91.61l1.26,2.16h-1.5ZM64.23,181.85h.82c.24,0,.43-.06.55-.18s.18-.29.18-.51-.06-.37-.18-.49-.3-.18-.55-.18h-.82v1.35Z"/>
        <path class="cls-1" d="M74.64,179.39l-1.94,5.46h-1.66l-1.94-5.46h1.41l1.35,4.12,1.36-4.12h1.41Z"/>
        <path class="cls-1" d="M78.08,179.39v5.46h-1.33v-5.46h1.33Z"/>
        <path class="cls-1" d="M80.72,180.67c.23-.42.56-.75.98-.99.42-.24.89-.35,1.42-.35.65,0,1.2.17,1.66.51s.77.81.92,1.4h-1.46c-.11-.23-.26-.4-.46-.52s-.43-.18-.68-.18c-.41,0-.74.14-1,.43-.25.29-.38.67-.38,1.14s.13.86.38,1.14.59.43,1,.43c.25,0,.48-.06.68-.18s.35-.29.46-.52h1.46c-.16.59-.46,1.06-.92,1.4s-1.02.51-1.66.51c-.53,0-1-.12-1.42-.35s-.74-.56-.98-.98-.35-.9-.35-1.44.12-1.02.35-1.44Z"/>
        <path class="cls-1" d="M89.4,180.46v1.1h1.78v1.03h-1.78v1.2h2.01v1.06h-3.34v-5.46h3.34v1.06h-2.01Z"/>
        <path class="cls-1" d="M100.43,183.89h-2.04l-.33.96h-1.39l1.97-5.46h1.54l1.97,5.46h-1.41l-.33-.96ZM100.09,182.86l-.68-2-.67,2h1.34Z"/>
        <path class="cls-1" d="M108.24,179.39v1.06h-1.45v4.39h-1.33v-4.39h-1.45v-1.06h4.22Z"/>
        <path class="cls-1" d="M117.21,179.74c.43.23.76.55,1,.96.24.41.35.89.35,1.43s-.12,1.01-.35,1.42c-.24.41-.57.74-1,.96s-.93.34-1.5.34h-2.04v-5.46h2.04c.57,0,1.08.11,1.51.34ZM116.79,183.29c.28-.27.42-.66.42-1.17s-.14-.89-.42-1.17-.67-.42-1.17-.42h-.63v3.17h.63c.5,0,.89-.14,1.17-.41Z"/>
        <path class="cls-1" d="M122.03,184.55c-.43-.24-.77-.57-1.02-1-.25-.43-.38-.91-.38-1.44s.13-1.01.38-1.44c.25-.42.59-.76,1.02-1,.43-.24.9-.36,1.41-.36s.98.12,1.41.36c.43.24.76.57,1.01,1s.37.9.37,1.44-.12,1.01-.37,1.44c-.25.43-.59.76-1.01,1s-.89.36-1.41.36-.98-.12-1.41-.36ZM124.49,183.26c.26-.29.39-.67.39-1.15s-.13-.87-.39-1.15c-.26-.29-.61-.43-1.05-.43s-.79.14-1.05.43-.39.67-.39,1.16.13.87.39,1.15c.26.29.61.43,1.05.43s.78-.15,1.05-.43Z"/>
        <path class="cls-1" d="M129.7,184.55c-.43-.24-.77-.57-1.02-1-.25-.43-.38-.91-.38-1.44s.13-1.01.38-1.44.59-.76,1.02-1c.43-.24.9-.36,1.41-.36s.98.12,1.41.36c.43.24.76.57,1.01,1s.37.9.37,1.44-.12,1.01-.37,1.44c-.25.43-.59.76-1.01,1s-.89.36-1.41.36-.98-.12-1.41-.36ZM132.15,183.26c.26-.29.39-.67.39-1.15s-.13-.87-.39-1.15c-.26-.29-.61-.43-1.05-.43s-.79.14-1.05.43c-.26.29-.39.67-.39,1.16s.13.87.39,1.15c.26.29.61.43,1.05.43s.78-.15,1.05-.43Z"/>
        <path class="cls-1" d="M138.97,184.85l-1.14-2.06h-.32v2.06h-1.33v-5.46h2.23c.43,0,.8.08,1.1.23.3.15.53.36.68.62.15.26.23.55.23.87,0,.36-.1.69-.31.97-.2.29-.51.49-.91.61l1.26,2.16h-1.5ZM137.52,181.85h.82c.24,0,.43-.06.55-.18.12-.12.18-.29.18-.51s-.06-.37-.18-.49c-.12-.12-.3-.18-.55-.18h-.82v1.35Z"/>
        <path class="cls-1" d="M143.71,184.71c-.32-.13-.57-.32-.76-.57-.19-.25-.29-.56-.3-.92h1.41c.02.2.09.36.21.46.12.11.28.16.47.16s.35-.04.47-.14c.11-.09.17-.22.17-.38,0-.13-.05-.25-.14-.33-.09-.09-.2-.16-.33-.22-.13-.06-.32-.12-.56-.19-.35-.11-.64-.22-.86-.33-.22-.11-.41-.27-.57-.48s-.24-.49-.24-.83c0-.51.18-.91.55-1.19.37-.29.85-.43,1.44-.43s1.09.14,1.45.43c.37.29.56.69.59,1.2h-1.44c-.01-.18-.08-.31-.19-.42-.12-.1-.27-.15-.46-.15-.16,0-.29.04-.39.13s-.15.21-.15.37c0,.18.08.31.25.41.17.1.42.2.78.32.35.12.64.23.86.34.22.11.41.27.57.47s.24.47.24.8-.08.59-.24.85c-.16.25-.39.46-.69.61-.3.15-.65.22-1.06.22s-.76-.06-1.07-.19Z"/>
        <path class="cls-1" d="M153.07,179.39v1.06h-1.45v4.39h-1.33v-4.39h-1.45v-1.06h4.22Z"/>
        <path class="cls-1" d="M156.62,180.46v1.1h1.78v1.03h-1.78v1.2h2.01v1.06h-3.34v-5.46h3.34v1.06h-2.01Z"/>
        <path class="cls-1" d="M164.99,182.02c-.15.26-.37.47-.67.63s-.67.24-1.12.24h-.82v1.96h-1.33v-5.46h2.15c.44,0,.8.08,1.1.23.3.15.53.36.68.62.15.26.23.57.23.91,0,.32-.07.6-.22.87ZM163.67,181.66c.12-.12.19-.29.19-.51s-.06-.39-.19-.51c-.12-.12-.31-.18-.57-.18h-.72v1.37h.72c.25,0,.44-.06.57-.18Z"/>
      </g>
    </g>
  </g>
</svg>